# Blender v2.79 (sub 0) OBJ File: 'arrow.blend'
# www.blender.org
mtllib arrow.mtl
o axis_Circle
v 0.000000 0.000000 -0.753535
v -0.532830 0.000000 -0.532830
v -0.753535 0.000000 -0.000000
v -0.532830 0.000000 0.532830
v 0.000000 0.000000 0.753535
v 0.532830 0.000000 0.532829
v 0.753535 0.000000 -0.000000
v 0.532830 0.000000 -0.532830
v 0.000000 12.254485 -0.753535
v -0.532830 12.254485 -0.532830
v -0.753535 12.254485 -0.000000
v -0.532830 12.254485 0.532830
v 0.000000 12.254485 0.753535
v 0.532830 12.254485 0.532829
v 0.753535 12.254485 -0.000000
v 0.532830 12.254485 -0.532830
v 0.000000 12.254484 -1.727561
v -1.221570 12.254484 -1.221570
v -1.727561 12.254484 -0.000000
v -1.221570 12.254484 1.221570
v 0.000000 12.254484 1.727561
v 1.221570 12.254484 1.221570
v 1.727561 12.254484 -0.000000
v 1.221570 12.254484 -1.221570
v 0.000001 18.601748 -0.249818
v -0.176647 18.601748 -0.176648
v -0.249817 18.601748 0.000000
v -0.176647 18.601748 0.176648
v 0.000001 18.601748 0.249818
v 0.176649 18.601748 0.176648
v 0.249818 18.601748 0.000000
v 0.176649 18.601748 -0.176648
v -0.753535 -0.000000 0.000000
v -0.532830 0.532829 0.000000
v -0.000000 0.753535 0.000000
v 0.532830 0.532830 -0.000000
v 0.753535 -0.000000 -0.000000
v 0.532829 -0.532830 -0.000000
v -0.000000 -0.753535 0.000000
v -0.532830 -0.532830 0.000000
v -0.753535 -0.000000 -12.254485
v -0.532830 0.532829 -12.254485
v -0.000001 0.753535 -12.254485
v 0.532829 0.532830 -12.254485
v 0.753534 -0.000000 -12.254485
v 0.532829 -0.532830 -12.254485
v -0.000001 -0.753535 -12.254485
v -0.532830 -0.532830 -12.254485
v -1.727561 -0.000000 -12.254484
v -1.221570 1.221570 -12.254484
v -0.000001 1.727561 -12.254484
v 1.221569 1.221570 -12.254484
v 1.727560 -0.000000 -12.254484
v 1.221569 -1.221570 -12.254484
v -0.000001 -1.727561 -12.254484
v -1.221570 -1.221571 -12.254484
v -0.249818 -0.000001 -18.601748
v -0.176648 0.176647 -18.601748
v -0.000001 0.249817 -18.601748
v 0.176647 0.176647 -18.601748
v 0.249817 -0.000001 -18.601748
v 0.176647 -0.176649 -18.601748
v -0.000001 -0.249818 -18.601748
v -0.176648 -0.176649 -18.601748
v 0.000000 -0.000000 -0.753535
v -0.000000 0.532830 -0.532830
v -0.000000 0.753535 -0.000000
v -0.000000 0.532830 0.532830
v 0.000000 -0.000000 0.753535
v 0.000000 -0.532830 0.532829
v 0.000000 -0.753535 -0.000000
v 0.000000 -0.532830 -0.532830
v 12.254485 0.000001 -0.753535
v 12.254485 0.532830 -0.532830
v 12.254485 0.753536 -0.000000
v 12.254485 0.532830 0.532830
v 12.254485 0.000001 0.753535
v 12.254485 -0.532829 0.532829
v 12.254485 -0.753534 -0.000000
v 12.254485 -0.532829 -0.532830
v 12.254484 0.000001 -1.727561
v 12.254484 1.221571 -1.221570
v 12.254484 1.727562 -0.000000
v 12.254484 1.221571 1.221570
v 12.254484 0.000000 1.727561
v 12.254484 -1.221570 1.221570
v 12.254484 -1.727560 -0.000000
v 12.254484 -1.221570 -1.221570
v 18.601748 0.000001 -0.249818
v 18.601748 0.176648 -0.176648
v 18.601748 0.249818 0.000000
v 18.601748 0.176648 0.176648
v 18.601748 0.000001 0.249818
v 18.601748 -0.176647 0.176648
v 18.601748 -0.249817 0.000000
v 18.601748 -0.176647 -0.176648
vt 0.645353 0.317550
vt 0.630749 0.302234
vt 0.630749 0.280573
vt 0.645353 0.265257
vt 0.666007 0.265257
vt 0.680611 0.280573
vt 0.680611 0.302234
vt 0.666007 0.317550
vt 0.548660 0.314371
vt 0.548660 0.336031
vt 0.516433 0.350031
vt 0.516433 0.300371
vt 0.825110 0.476184
vt 0.804456 0.476184
vt 0.804456 0.018514
vt 0.825109 0.018514
vt 0.754593 0.016894
vt 0.775247 0.016894
vt 0.775247 0.474565
vt 0.754593 0.474565
vt 0.975723 0.474565
vt 0.955069 0.474565
vt 0.955069 0.016894
vt 0.975723 0.016895
vt 0.825110 0.016894
vt 0.845763 0.016894
vt 0.845763 0.474565
vt 0.825110 0.474565
vt 0.789851 0.018514
vt 0.789851 0.476184
vt 0.739989 0.018514
vt 0.739989 0.476184
vt 0.860368 0.018514
vt 0.860368 0.476184
vt 0.789851 0.474565
vt 0.789851 0.016894
vt 0.706508 0.261530
vt 0.660208 0.251125
vt 0.728452 0.018483
vt 0.735147 0.019988
vt 0.583918 0.299054
vt 0.563264 0.299054
vt 0.549915 0.265257
vt 0.597266 0.265257
vt 0.598522 0.336031
vt 0.598522 0.314371
vt 0.630749 0.300371
vt 0.630749 0.350031
vt 0.563264 0.351348
vt 0.583918 0.351348
vt 0.597266 0.385145
vt 0.549915 0.385145
vt 0.680611 0.270335
vt 0.685453 0.265257
vt 0.692300 0.265257
vt 0.697142 0.270335
vt 0.697142 0.277516
vt 0.692300 0.282594
vt 0.685453 0.282594
vt 0.680611 0.277516
vt 0.907719 0.259368
vt 0.860368 0.259368
vt 0.880619 0.016894
vt 0.887467 0.016895
vt 0.594730 0.261530
vt 0.548431 0.251125
vt 0.616674 0.018483
vt 0.623370 0.019988
vt 0.628211 0.240138
vt 0.723825 0.016894
vt 0.739989 0.265257
vt 0.739989 0.020527
vt 0.516433 0.240138
vt 0.612047 0.016894
vt 0.628211 0.265257
vt 0.628211 0.020527
vt 0.907719 0.016895
vt 0.955069 0.016894
vt 0.934818 0.259368
vt 0.927970 0.259368
vt 0.138270 0.806351
vt 0.124356 0.791758
vt 0.124356 0.771121
vt 0.138270 0.756529
vt 0.157948 0.756529
vt 0.171862 0.771121
vt 0.171862 0.791758
vt 0.157948 0.806351
vt 0.046147 0.803322
vt 0.046147 0.823959
vt 0.015444 0.837296
vt 0.015444 0.789984
vt 0.309532 0.957487
vt 0.289854 0.957487
vt 0.289854 0.521447
vt 0.309531 0.521447
vt 0.242348 0.519904
vt 0.262026 0.519904
vt 0.262026 0.955945
vt 0.242348 0.955944
vt 0.453027 0.955945
vt 0.433349 0.955945
vt 0.433349 0.519904
vt 0.453027 0.519904
vt 0.309532 0.519904
vt 0.329209 0.519904
vt 0.329209 0.955945
vt 0.309532 0.955945
vt 0.275940 0.521447
vt 0.275940 0.957487
vt 0.228434 0.521447
vt 0.228434 0.957487
vt 0.343123 0.521447
vt 0.343123 0.957487
vt 0.275940 0.955944
vt 0.275940 0.519904
vt 0.196535 0.752978
vt 0.152424 0.743065
vt 0.217442 0.521418
vt 0.223821 0.522852
vt 0.079739 0.788729
vt 0.060061 0.788729
vt 0.047344 0.756529
vt 0.092457 0.756529
vt 0.093653 0.823959
vt 0.093653 0.803322
vt 0.124356 0.789984
vt 0.124356 0.837296
vt 0.060061 0.838551
vt 0.079739 0.838551
vt 0.092457 0.870751
vt 0.047344 0.870751
vt 0.171862 0.761367
vt 0.176475 0.756529
vt 0.182999 0.756529
vt 0.187612 0.761367
vt 0.187612 0.768208
vt 0.182999 0.773046
vt 0.176475 0.773046
vt 0.171862 0.768208
vt 0.388236 0.750919
vt 0.343123 0.750919
vt 0.362418 0.519904
vt 0.368942 0.519904
vt 0.090041 0.752978
vt 0.045929 0.743065
vt 0.110947 0.521418
vt 0.117326 0.522852
vt 0.121939 0.732597
vt 0.213034 0.519904
vt 0.228434 0.756529
vt 0.228434 0.523365
vt 0.015444 0.732597
vt 0.106539 0.519904
vt 0.121939 0.756529
vt 0.121939 0.523365
vt 0.388236 0.519904
vt 0.433349 0.519904
vt 0.414055 0.750919
vt 0.407531 0.750919
vt 0.646295 0.824533
vt 0.632184 0.809734
vt 0.632184 0.788806
vt 0.646295 0.774007
vt 0.666251 0.774007
vt 0.680362 0.788806
vt 0.680362 0.809735
vt 0.666251 0.824533
vt 0.552868 0.821461
vt 0.552868 0.842390
vt 0.521731 0.855917
vt 0.521731 0.807935
vt 0.819979 0.977808
vt 0.800023 0.977808
vt 0.800023 0.535599
vt 0.819979 0.535599
vt 0.751845 0.534035
vt 0.771801 0.534035
vt 0.771801 0.976243
vt 0.751845 0.976243
vt 0.965504 0.976243
vt 0.945548 0.976243
vt 0.945548 0.534035
vt 0.965504 0.534035
vt 0.819979 0.534035
vt 0.839935 0.534035
vt 0.839935 0.976243
vt 0.819979 0.976243
vt 0.785912 0.535599
vt 0.785912 0.977808
vt 0.737734 0.535599
vt 0.737734 0.977808
vt 0.854046 0.535599
vt 0.854046 0.977808
vt 0.785912 0.976243
vt 0.785912 0.534035
vt 0.705384 0.770406
vt 0.660649 0.760352
vt 0.726587 0.535570
vt 0.733056 0.537024
vt 0.586935 0.806662
vt 0.566979 0.806662
vt 0.554082 0.774007
vt 0.599833 0.774007
vt 0.601046 0.842390
vt 0.601046 0.821461
vt 0.632184 0.807935
vt 0.632184 0.855917
vt 0.566979 0.857189
vt 0.586935 0.857189
vt 0.599833 0.889845
vt 0.554082 0.889845
vt 0.680362 0.778913
vt 0.685040 0.774007
vt 0.691656 0.774007
vt 0.696334 0.778913
vt 0.696334 0.785851
vt 0.691656 0.790758
vt 0.685040 0.790758
vt 0.680362 0.785851
vt 0.899797 0.768317
vt 0.854046 0.768317
vt 0.873613 0.534035
vt 0.880229 0.534035
vt 0.597383 0.770406
vt 0.552647 0.760353
vt 0.618585 0.535570
vt 0.625054 0.537024
vt 0.629732 0.749736
vt 0.722116 0.534035
vt 0.737734 0.774007
vt 0.737734 0.537544
vt 0.521731 0.749736
vt 0.614114 0.534035
vt 0.629732 0.774007
vt 0.629732 0.537544
vt 0.899797 0.534035
vt 0.945548 0.534035
vt 0.925981 0.768317
vt 0.919365 0.768317
vn 0.0000 -1.0000 0.0000
vn 0.3827 0.0000 -0.9239
vn 0.9239 0.0000 0.3827
vn -0.3827 0.0000 0.9239
vn -0.9239 0.0000 -0.3827
vn 0.9239 0.0000 -0.3827
vn 0.3827 0.0000 0.9239
vn -0.9239 0.0000 0.3827
vn -0.3827 0.0000 -0.9239
vn 0.9032 0.2103 0.3741
vn 0.0000 1.0000 0.0000
vn -0.3741 0.2103 0.9032
vn -0.9032 0.2103 -0.3741
vn 0.9032 0.2103 -0.3741
vn 0.3741 0.2103 0.9032
vn -0.9032 0.2103 0.3741
vn -0.3741 0.2103 -0.9032
vn 0.3741 0.2103 -0.9032
vn 0.0000 0.0000 1.0000
vn -0.9239 -0.3827 0.0000
vn 0.3827 -0.9239 -0.0000
vn 0.9239 0.3827 -0.0000
vn -0.3827 0.9239 0.0000
vn -0.3827 -0.9239 0.0000
vn 0.9239 -0.3827 -0.0000
vn 0.3827 0.9239 -0.0000
vn -0.9239 0.3827 0.0000
vn 0.3741 -0.9032 -0.2103
vn 0.0000 0.0000 -1.0000
vn 0.9032 0.3741 -0.2103
vn -0.3741 0.9032 -0.2103
vn -0.3741 -0.9032 -0.2103
vn 0.9032 -0.3741 -0.2103
vn 0.3741 0.9032 -0.2103
vn -0.9032 0.3741 -0.2103
vn -0.9032 -0.3741 -0.2103
vn -1.0000 -0.0000 -0.0000
vn 0.0000 -0.3827 -0.9239
vn 0.0000 -0.9239 0.3827
vn -0.0000 0.3827 0.9239
vn -0.0000 0.9239 -0.3827
vn 0.0000 -0.9239 -0.3827
vn 0.0000 -0.3827 0.9239
vn -0.0000 0.9239 0.3827
vn -0.0000 0.3827 -0.9239
vn 0.2103 -0.9032 0.3741
vn 1.0000 0.0000 0.0000
vn 0.2103 0.3741 0.9032
vn 0.2103 0.9032 -0.3741
vn 0.2103 -0.9032 -0.3741
vn 0.2103 -0.3741 0.9032
vn 0.2103 0.9032 0.3741
vn 0.2103 0.3741 -0.9032
vn 0.2103 -0.3741 -0.9032
usemtl Material
s off
f 2/1/1 1/2/1 8/3/1 7/4/1 6/5/1 5/6/1 4/7/1 3/8/1
f 15/9/1 16/10/1 24/11/1 23/12/1
f 8/13/2 1/14/2 9/15/2 16/16/2
f 6/17/3 7/18/3 15/19/3 14/20/3
f 4/21/4 5/22/4 13/23/4 12/24/4
f 2/25/5 3/26/5 11/27/5 10/28/5
f 7/18/6 8/29/6 16/30/6 15/19/6
f 5/31/7 6/17/7 14/20/7 13/32/7
f 3/26/8 4/33/8 12/34/8 11/27/8
f 1/14/9 2/35/9 10/36/9 9/15/9
f 22/37/10 23/38/10 31/39/10 30/40/10
f 13/41/1 14/42/1 22/43/1 21/44/1
f 11/45/1 12/46/1 20/47/1 19/48/1
f 9/49/1 10/50/1 18/51/1 17/52/1
f 16/10/1 9/49/1 17/52/1 24/11/1
f 14/42/1 15/9/1 23/12/1 22/43/1
f 12/46/1 13/41/1 21/44/1 20/47/1
f 10/50/1 11/45/1 19/48/1 18/51/1
f 26/53/11 27/54/11 28/55/11 29/56/11 30/57/11 31/58/11 32/59/11 25/60/11
f 20/61/12 21/62/12 29/63/12 28/64/12
f 18/65/13 19/66/13 27/67/13 26/68/13
f 23/38/14 24/69/14 32/70/14 31/39/14
f 21/71/15 22/37/15 30/40/15 29/72/15
f 19/66/16 20/73/16 28/74/16 27/67/16
f 17/75/17 18/65/17 26/68/17 25/76/17
f 24/77/18 17/78/18 25/79/18 32/80/18
f 34/81/19 33/82/19 40/83/19 39/84/19 38/85/19 37/86/19 36/87/19 35/88/19
f 47/89/19 48/90/19 56/91/19 55/92/19
f 40/93/20 33/94/20 41/95/20 48/96/20
f 38/97/21 39/98/21 47/99/21 46/100/21
f 36/101/22 37/102/22 45/103/22 44/104/22
f 34/105/23 35/106/23 43/107/23 42/108/23
f 39/98/24 40/109/24 48/110/24 47/99/24
f 37/111/25 38/97/25 46/100/25 45/112/25
f 35/106/26 36/113/26 44/114/26 43/107/26
f 33/94/27 34/115/27 42/116/27 41/95/27
f 54/117/28 55/118/28 63/119/28 62/120/28
f 45/121/19 46/122/19 54/123/19 53/124/19
f 43/125/19 44/126/19 52/127/19 51/128/19
f 41/129/19 42/130/19 50/131/19 49/132/19
f 48/90/19 41/129/19 49/132/19 56/91/19
f 46/122/19 47/89/19 55/92/19 54/123/19
f 44/126/19 45/121/19 53/124/19 52/127/19
f 42/130/19 43/125/19 51/128/19 50/131/19
f 58/133/29 59/134/29 60/135/29 61/136/29 62/137/29 63/138/29 64/139/29 57/140/29
f 52/141/30 53/142/30 61/143/30 60/144/30
f 50/145/31 51/146/31 59/147/31 58/148/31
f 55/118/32 56/149/32 64/150/32 63/119/32
f 53/151/33 54/117/33 62/120/33 61/152/33
f 51/146/34 52/153/34 60/154/34 59/147/34
f 49/155/35 50/145/35 58/148/35 57/156/35
f 56/157/36 49/158/36 57/159/36 64/160/36
f 66/161/37 65/162/37 72/163/37 71/164/37 70/165/37 69/166/37 68/167/37 67/168/37
f 79/169/37 80/170/37 88/171/37 87/172/37
f 72/173/38 65/174/38 73/175/38 80/176/38
f 70/177/39 71/178/39 79/179/39 78/180/39
f 68/181/40 69/182/40 77/183/40 76/184/40
f 66/185/41 67/186/41 75/187/41 74/188/41
f 71/178/42 72/189/42 80/190/42 79/179/42
f 69/191/43 70/177/43 78/180/43 77/192/43
f 67/186/44 68/193/44 76/194/44 75/187/44
f 65/174/45 66/195/45 74/196/45 73/175/45
f 86/197/46 87/198/46 95/199/46 94/200/46
f 77/201/37 78/202/37 86/203/37 85/204/37
f 75/205/37 76/206/37 84/207/37 83/208/37
f 73/209/37 74/210/37 82/211/37 81/212/37
f 80/170/37 73/209/37 81/212/37 88/171/37
f 78/202/37 79/169/37 87/172/37 86/203/37
f 76/206/37 77/201/37 85/204/37 84/207/37
f 74/210/37 75/205/37 83/208/37 82/211/37
f 90/213/47 91/214/47 92/215/47 93/216/47 94/217/47 95/218/47 96/219/47 89/220/47
f 84/221/48 85/222/48 93/223/48 92/224/48
f 82/225/49 83/226/49 91/227/49 90/228/49
f 87/198/50 88/229/50 96/230/50 95/199/50
f 85/231/51 86/197/51 94/200/51 93/232/51
f 83/226/52 84/233/52 92/234/52 91/227/52
f 81/235/53 82/225/53 90/228/53 89/236/53
f 88/237/54 81/238/54 89/239/54 96/240/54
