# Blender v2.79 (sub 0) OBJ File: 'arrow.blend'
# www.blender.org
mtllib arrow.mtl
o axis_Circle
v 0.000002 0.000000 -7.535349
v -5.328295 0.000000 -5.328296
v -7.535348 0.000000 -0.000000
v -5.328295 0.000000 5.328296
v 0.000003 0.000000 7.535349
v 5.328299 0.000000 5.328294
v 7.535350 0.000000 -0.000001
v 5.328299 0.000000 -5.328296
v 0.000002 122.544846 -7.535349
v -5.328295 122.544846 -5.328296
v -7.535348 122.544846 -0.000000
v -5.328295 122.544846 5.328296
v 0.000003 122.544846 7.535349
v 5.328299 122.544846 5.328294
v 7.535350 122.544846 -0.000001
v 5.328299 122.544846 -5.328296
v 0.000003 122.544838 -17.275608
v -12.215699 122.544838 -12.215698
v -17.275608 122.544838 -0.000000
v -12.215699 122.544838 12.215701
v 0.000004 122.544838 17.275610
v 12.215705 122.544838 12.215696
v 17.275610 122.544838 -0.000001
v 12.215705 122.544838 -12.215698
v 0.000007 186.017471 -2.498177
v -1.766471 186.017471 -1.766477
v -2.498170 186.017471 0.000000
v -1.766471 186.017471 1.766479
v 0.000007 186.017471 2.498177
v 1.766485 186.017471 1.766478
v 2.498183 186.017471 0.000000
v 1.766485 186.017471 -1.766477
v -7.535349 -0.000003 0.000000
v -5.328297 5.328295 0.000000
v -0.000001 7.535348 0.000000
v 5.328296 5.328296 -0.000000
v 7.535349 -0.000002 -0.000000
v 5.328295 -5.328299 -0.000000
v -0.000000 -7.535350 0.000000
v -5.328296 -5.328300 0.000000
v -7.535354 -0.000003 -122.544846
v -5.328302 5.328295 -122.544846
v -0.000006 7.535348 -122.544846
v 5.328290 5.328296 -122.544846
v 7.535344 -0.000002 -122.544846
v 5.328290 -5.328299 -122.544846
v -0.000006 -7.535350 -122.544846
v -5.328301 -5.328300 -122.544846
v -17.275614 -0.000004 -122.544838
v -12.215705 12.215698 -122.544838
v -0.000007 17.275608 -122.544838
v 12.215694 12.215700 -122.544838
v 17.275604 -0.000003 -122.544838
v 12.215692 -12.215704 -122.544838
v -0.000005 -17.275610 -122.544838
v -12.215703 -12.215706 -122.544838
v -2.498185 -0.000007 -186.017471
v -1.766485 1.766471 -186.017471
v -0.000008 2.498170 -186.017471
v 1.766470 1.766471 -186.017471
v 2.498168 -0.000007 -186.017471
v 1.766470 -1.766485 -186.017471
v -0.000008 -2.498183 -186.017471
v -1.766485 -1.766485 -186.017471
v 0.000000 -0.000002 -7.535349
v -0.000000 5.328295 -5.328296
v -0.000001 7.535348 -0.000000
v -0.000000 5.328295 5.328296
v 0.000000 -0.000003 7.535349
v 0.000000 -5.328299 5.328294
v 0.000001 -7.535350 -0.000001
v 0.000000 -5.328299 -5.328296
v 122.544846 0.000007 -7.535349
v 122.544846 5.328304 -5.328296
v 122.544846 7.535357 -0.000000
v 122.544846 5.328304 5.328296
v 122.544846 0.000006 7.535349
v 122.544846 -5.328290 5.328294
v 122.544846 -7.535341 -0.000001
v 122.544846 -5.328290 -5.328296
v 122.544838 0.000006 -17.275608
v 122.544838 12.215709 -12.215698
v 122.544838 17.275618 -0.000000
v 122.544838 12.215709 12.215701
v 122.544838 0.000005 17.275610
v 122.544838 -12.215695 12.215696
v 122.544838 -17.275600 -0.000001
v 122.544838 -12.215695 -12.215698
v 186.017471 0.000007 -2.498177
v 186.017471 1.766485 -1.766477
v 186.017471 2.498184 0.000000
v 186.017471 1.766485 1.766479
v 186.017471 0.000007 2.498177
v 186.017471 -1.766471 1.766478
v 186.017471 -2.498169 0.000000
v 186.017471 -1.766471 -1.766477
vt 0.280693 0.654611
vt 0.248895 0.621262
vt 0.248895 0.574101
vt 0.280693 0.540753
vt 0.325662 0.540753
vt 0.357460 0.574101
vt 0.357460 0.621262
vt 0.325662 0.654611
vt 0.070166 0.647688
vt 0.070166 0.694849
vt 0.000000 0.725329
vt 0.000000 0.617207
vt 0.672073 1.000000
vt 0.627104 1.000000
vt 0.627104 0.003526
vt 0.672073 0.003526
vt 0.518540 0.000000
vt 0.563508 0.000000
vt 0.563508 0.996474
vt 0.518540 0.996474
vt 1.000000 0.996474
vt 0.955031 0.996474
vt 0.955031 0.000000
vt 1.000000 0.000000
vt 0.672073 0.000000
vt 0.717042 0.000000
vt 0.717042 0.996474
vt 0.672073 0.996474
vt 0.595306 0.003526
vt 0.595306 1.000000
vt 0.486742 0.003526
vt 0.486742 1.000000
vt 0.748839 0.003526
vt 0.748839 1.000000
vt 0.595306 0.996474
vt 0.595306 0.000000
vt 0.413845 0.532639
vt 0.313038 0.509985
vt 0.461623 0.003459
vt 0.476200 0.006735
vt 0.146932 0.614340
vt 0.101963 0.614340
vt 0.072900 0.540753
vt 0.175996 0.540753
vt 0.178730 0.694849
vt 0.178730 0.647688
vt 0.248895 0.617207
vt 0.248895 0.725330
vt 0.101963 0.728197
vt 0.146932 0.728197
vt 0.175996 0.801784
vt 0.072900 0.801784
vt 0.357460 0.551809
vt 0.368001 0.540753
vt 0.382910 0.540753
vt 0.393452 0.551809
vt 0.393452 0.567444
vt 0.382910 0.578500
vt 0.368001 0.578500
vt 0.357460 0.567444
vt 0.851935 0.527932
vt 0.748839 0.527932
vt 0.792933 0.000000
vt 0.807841 0.000000
vt 0.170474 0.532639
vt 0.069667 0.509985
vt 0.218252 0.003459
vt 0.232829 0.006735
vt 0.243371 0.486062
vt 0.451549 0.000000
vt 0.486742 0.540753
vt 0.486742 0.007909
vt 0.000000 0.486062
vt 0.208178 0.000000
vt 0.243371 0.540753
vt 0.243371 0.007909
vt 0.851935 0.000000
vt 0.955031 0.000000
vt 0.910937 0.527932
vt 0.896029 0.527932
vt 0.280693 0.654611
vt 0.248895 0.621262
vt 0.248895 0.574101
vt 0.280693 0.540753
vt 0.325662 0.540753
vt 0.357460 0.574101
vt 0.357460 0.621262
vt 0.325662 0.654611
vt 0.070166 0.647688
vt 0.070166 0.694849
vt 0.000000 0.725329
vt 0.000000 0.617207
vt 0.672073 1.000000
vt 0.627104 1.000000
vt 0.627104 0.003526
vt 0.672073 0.003526
vt 0.518540 0.000000
vt 0.563508 0.000000
vt 0.563508 0.996474
vt 0.518540 0.996474
vt 1.000000 0.996474
vt 0.955031 0.996474
vt 0.955031 0.000000
vt 1.000000 0.000000
vt 0.672073 0.000000
vt 0.717042 0.000000
vt 0.717042 0.996474
vt 0.672073 0.996474
vt 0.595306 0.003526
vt 0.595306 1.000000
vt 0.486742 0.003526
vt 0.486742 1.000000
vt 0.748839 0.003526
vt 0.748839 1.000000
vt 0.595306 0.996474
vt 0.595306 0.000000
vt 0.413845 0.532639
vt 0.313038 0.509985
vt 0.461623 0.003459
vt 0.476200 0.006735
vt 0.146932 0.614340
vt 0.101963 0.614340
vt 0.072900 0.540753
vt 0.175996 0.540753
vt 0.178730 0.694849
vt 0.178730 0.647688
vt 0.248895 0.617207
vt 0.248895 0.725330
vt 0.101963 0.728197
vt 0.146932 0.728197
vt 0.175996 0.801784
vt 0.072900 0.801784
vt 0.357460 0.551809
vt 0.368001 0.540753
vt 0.382910 0.540753
vt 0.393452 0.551809
vt 0.393452 0.567444
vt 0.382910 0.578500
vt 0.368001 0.578500
vt 0.357460 0.567444
vt 0.851935 0.527932
vt 0.748839 0.527932
vt 0.792933 0.000000
vt 0.807841 0.000000
vt 0.170474 0.532639
vt 0.069667 0.509985
vt 0.218252 0.003459
vt 0.232829 0.006735
vt 0.243371 0.486062
vt 0.451549 0.000000
vt 0.486742 0.540753
vt 0.486742 0.007909
vt 0.000000 0.486062
vt 0.208178 0.000000
vt 0.243371 0.540753
vt 0.243371 0.007909
vt 0.851935 0.000000
vt 0.955031 0.000000
vt 0.910937 0.527932
vt 0.896029 0.527932
vt 0.280693 0.654611
vt 0.248895 0.621262
vt 0.248895 0.574101
vt 0.280693 0.540753
vt 0.325662 0.540753
vt 0.357460 0.574101
vt 0.357460 0.621262
vt 0.325662 0.654611
vt 0.070166 0.647688
vt 0.070166 0.694849
vt 0.000000 0.725329
vt 0.000000 0.617207
vt 0.672073 1.000000
vt 0.627104 1.000000
vt 0.627104 0.003526
vt 0.672073 0.003526
vt 0.518540 0.000000
vt 0.563508 0.000000
vt 0.563508 0.996474
vt 0.518540 0.996474
vt 1.000000 0.996474
vt 0.955031 0.996474
vt 0.955031 0.000000
vt 1.000000 0.000000
vt 0.672073 0.000000
vt 0.717042 0.000000
vt 0.717042 0.996474
vt 0.672073 0.996474
vt 0.595306 0.003526
vt 0.595306 1.000000
vt 0.486742 0.003526
vt 0.486742 1.000000
vt 0.748839 0.003526
vt 0.748839 1.000000
vt 0.595306 0.996474
vt 0.595306 0.000000
vt 0.413845 0.532639
vt 0.313038 0.509985
vt 0.461623 0.003459
vt 0.476200 0.006735
vt 0.146932 0.614340
vt 0.101963 0.614340
vt 0.072900 0.540753
vt 0.175996 0.540753
vt 0.178730 0.694849
vt 0.178730 0.647688
vt 0.248895 0.617207
vt 0.248895 0.725330
vt 0.101963 0.728197
vt 0.146932 0.728197
vt 0.175996 0.801784
vt 0.072900 0.801784
vt 0.357460 0.551809
vt 0.368001 0.540753
vt 0.382910 0.540753
vt 0.393452 0.551809
vt 0.393452 0.567444
vt 0.382910 0.578500
vt 0.368001 0.578500
vt 0.357460 0.567444
vt 0.851935 0.527932
vt 0.748839 0.527932
vt 0.792933 0.000000
vt 0.807841 0.000000
vt 0.170474 0.532639
vt 0.069667 0.509985
vt 0.218252 0.003459
vt 0.232829 0.006735
vt 0.243371 0.486062
vt 0.451549 0.000000
vt 0.486742 0.540753
vt 0.486742 0.007909
vt 0.000000 0.486062
vt 0.208178 0.000000
vt 0.243371 0.540753
vt 0.243371 0.007909
vt 0.851935 0.000000
vt 0.955031 0.000000
vt 0.910937 0.527932
vt 0.896029 0.527932
vn 0.0000 -1.0000 0.0000
vn 0.3827 0.0000 -0.9239
vn 0.9239 0.0000 0.3827
vn -0.3827 0.0000 0.9239
vn -0.9239 0.0000 -0.3827
vn 0.9239 0.0000 -0.3827
vn 0.3827 0.0000 0.9239
vn -0.9239 0.0000 0.3827
vn -0.3827 0.0000 -0.9239
vn 0.9032 0.2103 0.3741
vn 0.0000 1.0000 0.0000
vn -0.3741 0.2103 0.9032
vn -0.9032 0.2103 -0.3741
vn 0.9032 0.2103 -0.3741
vn 0.3741 0.2103 0.9032
vn -0.9032 0.2103 0.3741
vn -0.3741 0.2103 -0.9032
vn 0.3741 0.2103 -0.9032
vn 0.0000 0.0000 1.0000
vn -0.9239 -0.3827 0.0000
vn 0.3827 -0.9239 -0.0000
vn 0.9239 0.3827 -0.0000
vn -0.3827 0.9239 0.0000
vn -0.3827 -0.9239 0.0000
vn 0.9239 -0.3827 -0.0000
vn 0.3827 0.9239 -0.0000
vn -0.9239 0.3827 0.0000
vn 0.3741 -0.9032 -0.2103
vn -0.0000 0.0000 -1.0000
vn 0.9032 0.3741 -0.2103
vn -0.3741 0.9032 -0.2103
vn -0.3741 -0.9032 -0.2103
vn 0.9032 -0.3741 -0.2103
vn 0.3741 0.9032 -0.2103
vn -0.9032 0.3741 -0.2103
vn -0.9032 -0.3741 -0.2103
vn -1.0000 -0.0000 -0.0000
vn 0.0000 -0.3827 -0.9239
vn 0.0000 -0.9239 0.3827
vn -0.0000 0.3827 0.9239
vn -0.0000 0.9239 -0.3827
vn 0.0000 -0.9239 -0.3827
vn 0.0000 -0.3827 0.9239
vn -0.0000 0.9239 0.3827
vn -0.0000 0.3827 -0.9239
vn 0.2103 -0.9032 0.3741
vn 1.0000 0.0000 0.0000
vn 0.2103 0.3741 0.9032
vn 0.2103 0.9032 -0.3741
vn 0.2103 -0.9032 -0.3741
vn 0.2103 -0.3741 0.9032
vn 0.2103 0.9032 0.3741
vn 0.2103 0.3741 -0.9032
vn 0.2103 -0.3741 -0.9032
usemtl None
s off
f 2/1/1 1/2/1 8/3/1 7/4/1 6/5/1 5/6/1 4/7/1 3/8/1
f 15/9/1 16/10/1 24/11/1 23/12/1
f 8/13/2 1/14/2 9/15/2 16/16/2
f 6/17/3 7/18/3 15/19/3 14/20/3
f 4/21/4 5/22/4 13/23/4 12/24/4
f 2/25/5 3/26/5 11/27/5 10/28/5
f 7/18/6 8/29/6 16/30/6 15/19/6
f 5/31/7 6/17/7 14/20/7 13/32/7
f 3/26/8 4/33/8 12/34/8 11/27/8
f 1/14/9 2/35/9 10/36/9 9/15/9
f 22/37/10 23/38/10 31/39/10 30/40/10
f 13/41/1 14/42/1 22/43/1 21/44/1
f 11/45/1 12/46/1 20/47/1 19/48/1
f 9/49/1 10/50/1 18/51/1 17/52/1
f 16/10/1 9/49/1 17/52/1 24/11/1
f 14/42/1 15/9/1 23/12/1 22/43/1
f 12/46/1 13/41/1 21/44/1 20/47/1
f 10/50/1 11/45/1 19/48/1 18/51/1
f 26/53/11 27/54/11 28/55/11 29/56/11 30/57/11 31/58/11 32/59/11 25/60/11
f 20/61/12 21/62/12 29/63/12 28/64/12
f 18/65/13 19/66/13 27/67/13 26/68/13
f 23/38/14 24/69/14 32/70/14 31/39/14
f 21/71/15 22/37/15 30/40/15 29/72/15
f 19/66/16 20/73/16 28/74/16 27/67/16
f 17/75/17 18/65/17 26/68/17 25/76/17
f 24/77/18 17/78/18 25/79/18 32/80/18
f 34/81/19 33/82/19 40/83/19 39/84/19 38/85/19 37/86/19 36/87/19 35/88/19
f 47/89/19 48/90/19 56/91/19 55/92/19
f 40/93/20 33/94/20 41/95/20 48/96/20
f 38/97/21 39/98/21 47/99/21 46/100/21
f 36/101/22 37/102/22 45/103/22 44/104/22
f 34/105/23 35/106/23 43/107/23 42/108/23
f 39/98/24 40/109/24 48/110/24 47/99/24
f 37/111/25 38/97/25 46/100/25 45/112/25
f 35/106/26 36/113/26 44/114/26 43/107/26
f 33/94/27 34/115/27 42/116/27 41/95/27
f 54/117/28 55/118/28 63/119/28 62/120/28
f 45/121/19 46/122/19 54/123/19 53/124/19
f 43/125/19 44/126/19 52/127/19 51/128/19
f 41/129/19 42/130/19 50/131/19 49/132/19
f 48/90/19 41/129/19 49/132/19 56/91/19
f 46/122/19 47/89/19 55/92/19 54/123/19
f 44/126/19 45/121/19 53/124/19 52/127/19
f 42/130/19 43/125/19 51/128/19 50/131/19
f 58/133/29 59/134/29 60/135/29 61/136/29 62/137/29 63/138/29 64/139/29 57/140/29
f 52/141/30 53/142/30 61/143/30 60/144/30
f 50/145/31 51/146/31 59/147/31 58/148/31
f 55/118/32 56/149/32 64/150/32 63/119/32
f 53/151/33 54/117/33 62/120/33 61/152/33
f 51/146/34 52/153/34 60/154/34 59/147/34
f 49/155/35 50/145/35 58/148/35 57/156/35
f 56/157/36 49/158/36 57/159/36 64/160/36
f 66/161/37 65/162/37 72/163/37 71/164/37 70/165/37 69/166/37 68/167/37 67/168/37
f 79/169/37 80/170/37 88/171/37 87/172/37
f 72/173/38 65/174/38 73/175/38 80/176/38
f 70/177/39 71/178/39 79/179/39 78/180/39
f 68/181/40 69/182/40 77/183/40 76/184/40
f 66/185/41 67/186/41 75/187/41 74/188/41
f 71/178/42 72/189/42 80/190/42 79/179/42
f 69/191/43 70/177/43 78/180/43 77/192/43
f 67/186/44 68/193/44 76/194/44 75/187/44
f 65/174/45 66/195/45 74/196/45 73/175/45
f 86/197/46 87/198/46 95/199/46 94/200/46
f 77/201/37 78/202/37 86/203/37 85/204/37
f 75/205/37 76/206/37 84/207/37 83/208/37
f 73/209/37 74/210/37 82/211/37 81/212/37
f 80/170/37 73/209/37 81/212/37 88/171/37
f 78/202/37 79/169/37 87/172/37 86/203/37
f 76/206/37 77/201/37 85/204/37 84/207/37
f 74/210/37 75/205/37 83/208/37 82/211/37
f 90/213/47 91/214/47 92/215/47 93/216/47 94/217/47 95/218/47 96/219/47 89/220/47
f 84/221/48 85/222/48 93/223/48 92/224/48
f 82/225/49 83/226/49 91/227/49 90/228/49
f 87/198/50 88/229/50 96/230/50 95/199/50
f 85/231/51 86/197/51 94/200/51 93/232/51
f 83/226/52 84/233/52 92/234/52 91/227/52
f 81/235/53 82/225/53 90/228/53 89/236/53
f 88/237/54 81/238/54 89/239/54 96/240/54
